name C:\Users\r0593348\3dpredictsim\Results\Batchsim_tmt_linear_v2\Pog_s1_tmt_bCst_d00_k250_ig24_pas.mot
datacolumns 128
datarows 4
range 1.10322863 1.13632549
endheader
time	pelvis_tilt	pelvis_list	pelvis_rotation	pelvis_tx	pelvis_ty	pelvis_tz	hip_flexion_l	hip_adduction_l	hip_rotation_l	hip_flexion_r	hip_adduction_r	hip_rotation_r	knee_angle_l	knee_angle_r	ankle_angle_l	ankle_angle_r	subtalar_angle_l	subtalar_angle_r	tmt_angle_l	tmt_angle_r	mtp_angle_l	mtp_angle_r	lumbar_extension	lumbar_bending	lumbar_rotation	arm_flex_l	arm_add_l	arm_rot_l	arm_flex_r	arm_add_r	arm_rot_r	elbow_flex_l	elbow_flex_r	pro_sup_l	pro_sup_r	glut_med1_l/activation	glut_med2_l/activation	glut_med3_l/activation	glut_min1_l/activation	glut_min2_l/activation	glut_min3_l/activation	semimem_l/activation	semiten_l/activation	bifemlh_l/activation	bifemsh_l/activation	sar_l/activation	add_long_l/activation	add_brev_l/activation	add_mag1_l/activation	add_mag2_l/activation	add_mag3_l/activation	tfl_l/activation	pect_l/activation	grac_l/activation	glut_max1_l/activation	glut_max2_l/activation	glut_max3_l/activation	iliacus_l/activation	psoas_l/activation	quad_fem_l/activation	gem_l/activation	peri_l/activation	rect_fem_l/activation	vas_med_l/activation	vas_int_l/activation	vas_lat_l/activation	med_gas_l/activation	lat_gas_l/activation	soleus_l/activation	tib_post_l/activation	flex_dig_l/activation	flex_hal_l/activation	tib_ant_l/activation	per_brev_l/activation	per_long_l/activation	per_tert_l/activation	ext_dig_l/activation	ext_hal_l/activation	ercspn_l/activation	intobl_l/activation	extobl_l/activation	glut_med1_r/activation	glut_med2_r/activation	glut_med3_r/activation	glut_min1_r/activation	glut_min2_r/activation	glut_min3_r/activation	semimem_r/activation	semiten_r/activation	bifemlh_r/activation	bifemsh_r/activation	sar_r/activation	add_long_r/activation	add_brev_r/activation	add_mag1_r/activation	add_mag2_r/activation	add_mag3_r/activation	tfl_r/activation	pect_r/activation	grac_r/activation	glut_max1_r/activation	glut_max2_r/activation	glut_max3_r/activation	iliacus_r/activation	psoas_r/activation	quad_fem_r/activation	gem_r/activation	peri_r/activation	rect_fem_r/activation	vas_med_r/activation	vas_int_r/activation	vas_lat_r/activation	med_gas_r/activation	lat_gas_r/activation	soleus_r/activation	tib_post_r/activation	flex_dig_r/activation	flex_hal_r/activation	tib_ant_r/activation	per_brev_r/activation	per_long_r/activation	per_tert_r/activation	ext_dig_r/activation	ext_hal_r/activation	ercspn_r/activation	intobl_r/activation	extobl_r/activation	
          1.10322863	         -2.91019007	          0.96798689	          5.71954283	          1.37903579	          0.87028586	         -0.00452505	        -17.77959069	          1.57105664	          5.85047822	         25.81076124	         -0.41547876	         -4.15389376	         -7.39767837	         -5.00894895	        -10.84666925	          7.70424981	          8.62413796	          4.98040753	          4.00575752	          0.13561329	         27.01731401	         -0.06246685	          0.45495796	         -2.78728322	         -1.63656405	          3.81711882	        -13.49339611	         13.25106734	         -9.61738394	        -13.45231685	         14.25752800	         28.09602608	         16.31765975	         86.51662706	         86.51662706	          0.17436837	          0.07054168	          0.05000030	          0.17531364	          0.13553729	          0.07699184	          0.05000086	          0.05000010	          0.05000006	          0.05000026	          0.06684276	          0.14541649	          0.18100921	          0.05000174	          0.05000241	          0.05000043	          0.22539904	          0.05919631	          0.05000371	          0.05000058	          0.05000041	          0.05000047	          0.37291712	          0.63950707	          0.05000013	          0.05000049	          0.05919510	          0.31493852	          0.07509055	          0.15176460	          0.10306714	          0.16160664	          0.24015495	          0.18892969	          0.19726871	          0.19074634	          0.23880794	          0.05000000	          0.08308029	          0.13424260	          0.05000011	          0.05000002	          0.05000008	          0.06525214	          0.05000008	          0.09276703	          0.05919355	          0.05919356	          0.05000051	          0.05919361	          0.05919359	          0.05919345	          0.18263796	          0.11805422	          0.15352481	          0.09523073	          0.05000063	          0.11915397	          0.14172344	          0.38713939	          0.25284464	          0.13397811	          0.05000009	          0.05000140	          0.14650946	          0.05000049	          0.09017516	          0.22619350	          0.05919360	          0.05919404	          0.21417926	          0.28522113	          0.16572035	          0.07363996	          0.07467724	          0.09528529	          0.05525786	          0.07007708	          0.07007830	          0.07007795	          0.05000005	          0.05000024	          0.05000023	          0.52114327	          0.06137253	          0.20230854	          0.33922226	          0.50674541	          0.34500558	          0.05000002	          0.12072451	          0.10176946	
          1.11426092	         -2.88595456	          0.99416207	          5.81606028	          1.39673938	          0.86910242	         -0.00438461	        -17.43586658	          1.41202921	          5.64264450	         25.34860342	         -0.15326021	         -3.93606981	         -9.83182109	         -5.92779948	        -11.49051218	          6.88662722	          9.73132409	          4.62040392	          3.49306635	          0.00534069	         27.70120644	         -0.07130292	          0.70607726	         -2.56431779	         -1.68495974	          3.50153985	        -13.52855372	         13.51352589	        -10.87662058	        -13.45202675	         14.11716192	         28.96987114	         16.37108403	         86.51662706	         86.51662706	          0.14728660	          0.05958563	          0.05919358	          0.14808509	          0.11448655	          0.06503401	          0.05000136	          0.05000019	          0.05000087	          0.05000002	          0.05646123	          0.20679700	          0.37646894	          0.27584721	          0.07130799	          0.16012249	          0.19039153	          0.05000246	          0.05000033	          0.05919458	          0.05919518	          0.05920943	          0.31499800	          0.54018296	          0.05919364	          0.05919370	          0.05000152	          0.26602427	          0.13765620	          0.13765636	          0.10107137	          0.13650693	          0.20285562	          0.15958633	          0.16663020	          0.16112093	          0.20171786	          0.05000010	          0.07017684	          0.11339328	          0.05000008	          0.11186322	          0.05000041	          0.07545265	          0.08296279	          0.07835929	          0.05000001	          0.05000004	          0.12949072	          0.05000005	          0.05000005	          0.05000007	          0.15427179	          0.09971882	          0.12968032	          0.08044012	          0.05000037	          0.10064783	          0.24483607	          0.32701198	          0.27079274	          0.16041403	          0.05000063	          0.08296613	          0.12375491	          0.05420069	          0.13789619	          0.20627892	          0.05000010	          0.05000059	          0.39662257	          0.24092241	          0.13998176	          0.06220278	          0.18255424	          0.19853021	          0.14583176	          0.05919363	          0.05919426	          0.05919389	          0.05000003	          0.07007669	          0.05919548	          0.44020263	          0.05184054	          0.23445198	          0.32204722	          0.51171010	          0.29142154	          0.05000000	          0.10197434	          0.08596327	
          1.12529320	         -2.85473373	          0.99267023	          5.88140636	          1.41457702	          0.86768330	         -0.00426607	        -16.97977078	          1.24772845	          5.41521998	         24.74406131	          0.00650446	         -3.68713238	        -12.46675817	         -6.89911976	        -11.96542265	          6.16170950	         10.78443622	          4.20581192	          2.81063523	         -0.13381629	         27.79801903	         -0.17699110	          0.96400070	         -2.30339313	         -1.72288146	          3.13184412	        -13.56500686	         13.71535271	        -12.11145488	        -13.47167234	         14.06424674	         29.85191505	         16.39506163	         86.51662706	         86.51662706	          0.17441185	          0.05033119	          0.05000003	          0.21080301	          0.09670534	          0.05493339	          0.05000133	          0.05000012	          0.05000007	          0.05000067	          0.08028128	          0.17467881	          0.31799825	          0.23300444	          0.06023313	          0.13525335	          0.16082125	          0.13266132	          0.05000042	          0.05000110	          0.05000149	          0.05001349	          0.26607455	          0.50872144	          0.05000008	          0.05000020	          0.05000006	          0.22470706	          0.11627632	          0.11627645	          0.08537361	          0.11530554	          0.17134939	          0.13480039	          0.14075028	          0.13609675	          0.17038839	          0.06879987	          0.13191286	          0.11458915	          0.12979126	          0.21008860	          0.09613302	          0.07784954	          0.07007754	          0.06618903	          0.27049867	          0.30005864	          0.37703771	          0.45260260	          0.33756591	          0.29702872	          0.13031129	          0.09101757	          0.10953925	          0.08296317	          0.05919375	          0.08501586	          0.20680970	          0.27622259	          0.22873502	          0.15878232	          0.05000028	          0.07008054	          0.10453419	          0.05000038	          0.17864167	          0.20094476	          0.05062384	          0.05000035	          0.33502168	          0.20350397	          0.30742131	          0.05254185	          0.15420111	          0.16769579	          0.12318213	          0.05000007	          0.05000062	          0.05000027	          0.05000011	          0.05919305	          0.05000193	          0.57228236	          0.25523265	          0.19803840	          0.60021919	          0.59145851	          0.39562068	          0.06057881	          0.09521785	          0.07261200	
          1.13632549	         -2.81990978	          0.98327959	          5.91549632	          1.43230104	          0.86607858	         -0.00411032	        -16.41787142	          1.08814796	          5.17574671	         24.06411496	          0.15403961	         -3.43964999	        -15.24656781	         -7.78292341	        -12.22711840	          5.62116919	         11.76663609	          3.74731417	          2.03218694	         -0.04250716	         27.00480398	         -0.19260311	          1.20496954	         -2.03250665	         -1.75016189	          2.75823238	        -13.61213920	         13.89089533	        -13.27004388	        -13.49673687	         14.10674398	         30.70815503	         16.35836053	         86.51662706	         86.51662706	          0.14732333	          0.05000082	          0.05267354	          0.17806247	          0.08168576	          0.05000231	          0.06932060	          0.05919247	          0.05919358	          0.05000093	          0.06781264	          0.18308493	          0.32337984	          0.19730632	          0.05088450	          0.11424735	          0.13584358	          0.11205753	          0.05919433	          0.05000494	          0.05000266	          0.05000243	          0.22474955	          0.42971020	          0.06018228	          0.05834455	          0.05000272	          0.18980698	          0.09821703	          0.09821715	          0.07211394	          0.09739702	          0.14473652	          0.11386405	          0.11888989	          0.11495920	          0.14392484	          0.08145251	          0.11142513	          0.09679194	          0.10963299	          0.26153819	          0.14919319	          0.09756987	          0.05919354	          0.05590897	          0.37025836	          0.42351770	          0.47308968	          0.38533209	          0.38568046	          0.40686489	          0.11007217	          0.07688154	          0.09252633	          0.07007789	          0.05000055	          0.07181175	          0.17468935	          0.23332150	          0.19320971	          0.17991746	          0.05000034	          0.05919628	          0.08829869	          0.24216975	          0.22472392	          0.20890704	          0.05000011	          0.05000012	          0.28298826	          0.17189708	          0.28010490	          0.05000006	          0.14425423	          0.17188564	          0.11687739	          0.05000003	          0.05000007	          0.05000001	          0.05000001	          0.05000013	          0.05000014	          0.63500179	          0.21559156	          0.16728035	          0.63032700	          0.61951092	          0.50625819	          0.07379889	          0.08042922	          0.06133437	
